<svg xmlns="http://www.w3.org/2000/svg" viewBox="0 0 1200 675" role="img" aria-labelledby="title desc">
<title id="title">EventAlpha screening workflow</title><desc id="desc">Market behavior, company and event evidence, and investability context flow into an explainable recommendation layer.</desc>
<rect width="1200" height="675" fill="#121714"/><rect x="26" y="26" width="1148" height="623" rx="30" fill="#171d19" stroke="#454c46" stroke-width="2"/>
<style>.t{font-family:Inter,Arial,sans-serif;fill:#f2eee5}.m{font-family:ui-monospace,monospace;fill:#aaa79f}.line{fill:none;stroke:#f2eee5;stroke-width:5;stroke-linecap:round;stroke-linejoin:round}.thin{fill:none;stroke:#454c46;stroke-width:3;stroke-linecap:round;stroke-linejoin:round}.sage{fill:none;stroke:#a8bd87;stroke-width:5;stroke-linecap:round;stroke-linejoin:round}.orange{fill:none;stroke:#ef7143;stroke-width:5;stroke-linecap:round;stroke-linejoin:round}.sand{fill:none;stroke:#d7b47a;stroke-width:5;stroke-linecap:round;stroke-linejoin:round}</style>
<text x="72" y="92" class="m" font-size="24">THREE-PART RECOMMENDATION SCREENING</text>
<rect x="75" y="155" width="230" height="115" rx="22" class="sage"/><circle cx="130" cy="212" r="28" class="sage"/><text x="120" y="222" class="t" font-size="30">$</text><text x="170" y="218" class="m" font-size="15">market behavior</text><rect x="75" y="295" width="230" height="115" rx="22" class="sand"/><path d="M110 330h52v50h-52zM125 345h22M125 360h22" class="line"/><text x="160" y="358" class="m" font-size="14">events / company</text><rect x="75" y="435" width="230" height="115" rx="22" class="orange"/><path d="M110 510l30-36 28 18 30-42" class="line"/><text x="170" y="500" class="m" font-size="15">investability</text>
<path d="M325 212C430 212 430 320 510 320M325 352H510M325 492C430 492 430 385 510 385" class="thin"/>
<rect x="510" y="235" width="240" height="240" rx="34" class="orange"/><rect x="565" y="290" width="130" height="130" rx="22" class="thin"/><text x="604" y="374" class="t" font-size="52" font-weight="700">3×</text><path d="M535 300h-25M535 355h-25M535 410h-25M725 300h25M725 355h25M725 410h25" class="orange"/>
<path d="M780 355H875" class="line"/><path d="m853 335 25 20-25 20" class="line"/><rect x="890" y="190" width="235" height="330" rx="28" class="sage"/><text x="948" y="245" class="t" font-size="27" font-weight="700">Review</text><path d="M940 300h130M940 345h105M940 390h120" class="thin"/><path d="M945 455h35v-30h35v30h35v-70" class="orange"/><text x="935" y="495" class="m" font-size="18">evidence + context</text></svg>